<?xml version="1.0" standalone="no"?>
<!DOCTYPE svg PUBLIC "-//W3C//DTD SVG 20010904//EN"
 "http://www.w3.org/TR/2001/REC-SVG-20010904/DTD/svg10.dtd">
<svg version="1.0" xmlns="http://www.w3.org/2000/svg"
 width="300.000000pt" height="300.000000pt" viewBox="0 0 300.000000 300.000000"
 preserveAspectRatio="xMidYMid meet">
<metadata>
Created by potrace 1.10, written by Peter Selinger 2001-2011
</metadata>
<g transform="translate(0.000000,300.000000) scale(0.100000,-0.100000)"
fill="#000000" stroke="none">
<path d="M61 2996 c10 -9 181 -107 269 -154 240 -127 379 -139 429 -37 12 25
11 37 -10 111 -13 46 -27 84 -31 84 -3 0 2 -30 13 -67 27 -97 25 -126 -12
-157 -25 -21 -41 -26 -84 -26 -30 0 -76 7 -102 16 -67 22 -229 102 -353 173
-88 51 -138 75 -119 57z"/>
<path d="M194 2969 c64 -40 290 -153 338 -168 21 -7 59 -13 84 -14 38 -2 49 2
66 23 18 22 20 34 15 92 -3 37 -11 76 -17 85 -9 15 -10 13 -6 -12 18 -98 19
-125 1 -151 -16 -25 -20 -26 -77 -21 -63 6 -198 64 -358 154 -87 49 -118 57
-46 12z"/>
<path d="M250 2989 c36 -24 269 -138 307 -149 88 -27 119 10 89 107 -23 71
-31 63 -12 -11 17 -63 13 -82 -15 -91 -28 -9 -77 9 -231 86 -124 63 -177 85
-138 58z"/>
<path d="M340 2996 c0 -6 184 -94 211 -101 37 -9 53 14 44 65 -4 22 -11 40
-16 40 -5 0 -6 -12 -2 -27 4 -16 7 -37 7 -48 1 -29 -31 -22 -141 31 -89 43
-103 48 -103 40z"/>
<path d="M468 2982 c28 -14 34 -14 47 -1 12 12 8 14 -33 15 l-47 1 33 -15z"/>
<path d="M760 2998 c0 -3 10 -37 22 -74 31 -99 29 -158 -5 -192 -26 -25 -33
-27 -110 -27 -58 0 -103 7 -152 23 -90 29 -282 124 -410 201 -54 33 -102 58
-105 54 -3 -3 -1 -7 5 -9 6 -2 55 -31 110 -65 140 -85 326 -174 415 -198 79
-22 182 -27 224 -11 32 12 66 65 66 104 0 35 -38 177 -51 191 -5 5 -9 6 -9 3z"/>
<path d="M830 2995 c0 -6 11 -45 25 -88 14 -43 25 -98 25 -124 0 -40 -5 -50
-42 -88 -97 -97 -262 -81 -533 50 -60 30 -152 79 -204 109 -52 31 -96 54 -98
52 -3 -2 6 -11 19 -19 163 -102 345 -194 463 -233 93 -31 211 -41 273 -25 86
24 152 111 137 184 -17 83 -65 219 -65 182z"/>
<path d="M900 2997 c0 -4 11 -46 25 -93 39 -135 30 -190 -42 -260 -134 -130
-386 -91 -748 116 -70 39 -129 70 -131 67 -7 -6 153 -100 261 -155 113 -56
278 -110 360 -118 96 -9 170 8 236 54 98 69 119 152 78 301 -18 64 -39 112
-39 88z"/>
<path d="M980 2996 c0 -2 9 -32 20 -66 25 -79 25 -162 1 -216 -10 -23 -42 -66
-69 -97 -70 -77 -76 -90 -58 -125 26 -51 197 -122 354 -147 48 -8 92 13 92 43
0 10 -27 44 -59 76 -87 86 -105 133 -103 271 0 72 7 136 20 188 11 42 16 77
12 77 -18 0 -45 -160 -45 -270 0 -139 13 -175 99 -267 76 -82 73 -98 -14 -97
-96 1 -281 65 -330 114 -31 31 -24 56 36 121 68 74 97 135 98 209 1 55 -32
190 -46 190 -5 0 -8 -2 -8 -4z"/>
<path d="M1070 2975 c-11 -21 -11 -32 -2 -59 28 -78 -2 -206 -69 -292 -74 -94
-75 -98 -57 -127 25 -36 235 -115 272 -101 27 10 18 36 -29 94 -65 78 -79 135
-70 274 4 61 6 133 6 160 -1 27 4 55 10 62 8 10 8 14 0 14 -29 0 -47 -315 -22
-407 6 -23 34 -70 61 -104 28 -34 50 -66 50 -71 0 -17 -64 -7 -151 26 -84 32
-129 58 -129 77 0 4 19 31 43 61 62 78 74 99 91 166 19 70 21 141 5 175 -8 18
-8 30 1 47 6 12 10 24 7 26 -2 2 -10 -7 -17 -21z"/>
<path d="M1227 2993 c-15 -24 -29 -199 -24 -295 6 -121 25 -175 63 -184 29 -8
48 -4 144 31 45 16 104 29 150 32 72 5 105 1 253 -31 115 -25 147 0 112 87
-37 91 -7 213 76 318 17 22 29 42 26 45 -12 12 -99 -124 -117 -185 -25 -78
-25 -100 -1 -176 10 -33 16 -65 14 -72 -7 -18 -70 -16 -134 4 -41 13 -89 18
-194 18 -135 0 -143 -2 -219 -33 -132 -55 -148 -38 -154 171 -2 78 1 166 8
204 10 61 9 86 -3 66z"/>
<path d="M1276 2989 c-14 -38 -27 -148 -27 -220 0 -91 19 -138 64 -153 18 -7
73 -4 174 8 148 18 148 18 236 -3 126 -31 132 -26 140 117 5 77 42 171 93 232
14 16 21 30 15 30 -14 0 -67 -79 -98 -146 -18 -40 -26 -76 -28 -134 -2 -44 -7
-85 -10 -90 -9 -14 -52 -12 -109 5 -64 20 -154 19 -282 -2 -122 -20 -147 -13
-171 45 -12 29 -14 58 -9 137 3 55 11 117 17 138 10 36 5 67 -5 36z"/>
<path d="M1322 2979 c-29 -75 -33 -229 -8 -277 21 -41 48 -47 155 -33 48 6
133 11 188 11 125 0 135 7 163 108 21 76 61 164 88 195 9 10 11 17 4 17 -19 0
-71 -100 -99 -190 -14 -47 -32 -92 -40 -100 -10 -11 -50 -16 -166 -21 -84 -4
-172 -10 -197 -14 -37 -6 -50 -4 -70 13 -22 18 -25 29 -28 99 -2 47 2 104 11
143 16 66 15 92 -1 49z"/>
<path d="M1372 2975 c-19 -40 -35 -159 -28 -198 12 -65 27 -70 173 -59 70 5
146 10 168 11 51 1 78 30 100 108 9 32 30 82 47 111 16 28 25 52 20 52 -11 0
-79 -145 -88 -188 -12 -58 -37 -68 -186 -75 -73 -4 -142 -9 -154 -13 -12 -3
-29 2 -45 14 -21 18 -24 28 -23 79 1 32 9 85 17 118 18 64 17 80 -1 40z"/>
<path d="M1415 2958 c-10 -24 -20 -71 -22 -104 -5 -54 -3 -64 17 -84 19 -19
29 -21 64 -16 22 3 77 11 121 16 48 6 89 17 104 28 24 17 107 190 96 200 -2 3
-12 -12 -20 -32 -43 -101 -63 -142 -79 -155 -9 -7 -58 -20 -109 -27 -50 -8
-104 -16 -119 -20 -19 -4 -33 1 -49 17 -19 19 -21 28 -15 77 4 30 15 75 26 99
10 24 15 43 11 43 -5 0 -17 -19 -26 -42z"/>
<path d="M1471 2969 c-21 -35 -35 -109 -26 -139 8 -26 35 -32 86 -21 24 6 58
11 74 11 54 0 123 74 149 158 5 13 3 22 -3 22 -6 0 -11 -7 -11 -15 0 -26 -36
-88 -68 -119 -26 -24 -43 -30 -117 -39 -72 -9 -88 -8 -96 4 -11 18 -2 72 22
127 21 49 17 55 -10 11z"/>
<path d="M1530 2970 c-75 -80 -33 -132 82 -100 41 12 98 79 98 114 -1 14 -9 6
-26 -26 -13 -26 -34 -54 -47 -62 -24 -16 -106 -24 -124 -13 -17 11 -4 45 32
83 18 19 28 34 23 34 -6 0 -23 -13 -38 -30z"/>
<path d="M2066 2984 c-9 -23 19 -69 56 -92 94 -57 209 -65 428 -27 225 39 341
31 424 -28 20 -14 27 -16 24 -6 -2 8 -31 27 -62 44 -52 26 -68 29 -155 30 -62
0 -157 -10 -269 -29 -158 -27 -179 -29 -243 -18 -119 21 -199 73 -186 123 6
23 -8 26 -17 3z"/>
<path d="M2194 2985 c-8 -19 11 -42 50 -63 35 -18 152 -20 228 -3 86 20 247
41 306 41 64 0 165 -23 200 -46 12 -8 22 -10 22 -5 0 16 -92 53 -152 61 -69
10 -203 -2 -346 -30 -124 -24 -198 -25 -252 -4 -38 15 -44 23 -41 52 3 17 -8
15 -15 -3z"/>
<path d="M2970 2990 c20 -13 33 -13 25 0 -3 6 -14 10 -23 10 -15 0 -15 -2 -2
-10z"/>
<path d="M2024 2840 c-62 -25 -77 -90 -48 -205 20 -79 13 -110 -29 -135 -39
-24 -109 -26 -227 -5 -148 26 -288 17 -332 -23 -10 -8 -18 -29 -18 -48 0 -26
7 -39 34 -59 19 -15 40 -42 46 -61 18 -53 48 -68 124 -60 35 3 71 3 80 0 9 -4
30 -26 47 -50 25 -37 39 -46 87 -60 91 -27 162 -79 246 -183 39 -49 70 -76
111 -96 42 -22 62 -39 76 -67 25 -48 78 -110 90 -102 19 12 9 85 -16 118 -30
40 -33 81 -5 96 28 15 46 56 55 120 4 30 14 69 22 87 23 51 107 121 191 161
64 31 90 37 155 40 67 4 84 1 130 -22 28 -14 76 -44 105 -66 28 -22 52 -35 52
-30 0 14 -86 77 -148 107 -134 65 -301 21 -443 -117 -59 -58 -70 -81 -84 -183
-5 -35 -16 -59 -41 -86 -19 -21 -34 -45 -34 -53 0 -8 13 -32 30 -54 28 -36 42
-104 22 -104 -4 0 -25 26 -45 58 -45 70 -68 93 -125 121 -26 13 -61 45 -89 82
-67 86 -155 155 -232 180 -63 21 -80 33 -114 83 -22 32 -69 45 -126 34 -56
-10 -91 6 -105 49 -6 18 -28 48 -48 66 -21 19 -38 42 -38 51 0 27 36 53 89 65
72 15 101 14 251 -10 156 -25 210 -21 252 21 33 33 36 74 13 160 -21 77 -19
104 11 139 35 42 67 40 205 -9 134 -48 178 -50 366 -19 167 27 282 23 371 -13
34 -14 62 -22 62 -18 0 15 -106 51 -180 62 -66 10 -95 8 -242 -16 -216 -34
-239 -33 -346 8 -48 19 -103 37 -122 41 -19 3 -42 8 -50 10 -8 2 -25 0 -36 -5z"/>
<path d="M0 2743 c1 -15 345 -190 435 -221 56 -19 139 -37 220 -47 154 -20
215 -42 215 -79 0 -82 -285 -276 -460 -312 -116 -24 -246 3 -348 72 -30 19
-56 33 -59 31 -8 -9 100 -76 158 -98 75 -29 197 -36 276 -16 150 39 391 197
439 290 35 67 -20 99 -224 128 -203 28 -233 39 -515 188 -75 40 -137 69 -137
64z"/>
<path d="M2203 2705 c-39 -19 -78 -35 -86 -35 -25 0 -44 -33 -62 -107 -14 -60
-23 -78 -55 -107 -50 -45 -105 -54 -230 -35 -52 7 -134 14 -182 14 -76 0 -90
-3 -109 -21 l-21 -21 22 -21 c12 -11 63 -34 113 -52 165 -58 295 -135 422
-252 86 -79 113 -98 140 -98 27 0 72 48 116 124 48 83 143 175 225 218 174 91
300 90 439 -1 61 -40 87 -47 44 -12 -42 35 -142 81 -199 91 -91 17 -223 -19
-327 -87 -70 -46 -163 -148 -212 -231 -46 -79 -76 -101 -112 -81 -13 6 -55 41
-94 77 -137 127 -273 208 -463 276 -92 33 -107 50 -62 73 34 17 104 16 192 -3
87 -18 203 -20 252 -4 49 16 93 70 111 138 22 78 33 102 46 102 6 0 43 16 80
35 38 19 79 35 92 35 13 0 41 -13 63 -30 61 -46 91 -48 176 -9 71 33 75 34
213 34 129 0 145 -2 203 -26 34 -15 62 -23 62 -19 0 4 -30 20 -67 36 -62 25
-79 28 -198 28 -126 1 -132 0 -199 -31 -88 -42 -131 -43 -181 -3 -21 17 -41
30 -46 30 -4 0 -13 2 -21 5 -7 3 -46 -10 -85 -30z"/>
<path d="M6 2661 c24 -24 367 -192 428 -210 51 -16 95 -21 178 -21 81 0 117
-4 140 -16 30 -16 31 -17 13 -30 -10 -8 -24 -14 -30 -14 -19 0 -64 -49 -83
-92 -26 -58 -42 -70 -109 -74 -32 -3 -95 -16 -139 -29 -139 -43 -214 -29 -339
59 -36 26 -65 43 -65 37 0 -18 151 -111 207 -127 64 -19 101 -15 216 21 43 14
99 25 125 25 61 0 86 18 122 89 24 48 37 62 74 80 100 46 38 82 -159 92 -164
8 -181 14 -420 139 -146 76 -181 92 -159 71z"/>
<path d="M2565 2649 c-92 -15 -149 -19 -243 -15 -76 4 -131 2 -143 -5 -24 -13
-59 -68 -88 -141 -30 -75 -61 -104 -133 -124 -63 -18 -108 -47 -108 -69 0 -26
52 -75 141 -135 77 -51 97 -60 135 -60 40 0 49 5 87 46 138 150 187 193 269
233 110 54 196 75 275 68 65 -6 164 -42 213 -77 16 -12 30 -18 30 -13 0 14
-83 61 -147 82 -85 29 -172 27 -270 -4 -140 -44 -232 -112 -373 -273 -62 -70
-89 -70 -196 -1 -94 61 -144 106 -144 131 0 22 30 41 100 63 73 23 104 54 137
138 15 39 42 86 60 105 32 34 33 34 90 26 85 -13 179 -8 351 17 172 25 225 21
331 -27 64 -29 81 -25 22 5 -105 54 -202 61 -396 30z"/>
<path d="M2585 2605 c-85 -15 -184 -24 -251 -24 -135 -1 -149 -9 -200 -114
-41 -85 -54 -99 -121 -143 -64 -41 -67 -59 -14 -107 51 -46 73 -57 114 -59 42
-1 62 12 124 85 62 75 143 138 238 186 92 47 183 65 293 59 68 -4 94 -11 154
-41 77 -38 103 -42 47 -7 -77 47 -140 63 -239 63 -57 0 -115 -6 -146 -15 -117
-36 -256 -123 -329 -207 -88 -100 -102 -111 -136 -111 -47 0 -149 69 -149 100
0 5 24 25 53 44 68 44 78 56 121 146 20 42 47 82 59 90 15 9 71 16 172 21 83
4 188 14 235 23 136 26 201 21 299 -19 96 -39 125 -39 36 0 -68 30 -159 55
-195 54 -14 -1 -88 -12 -165 -24z"/>
<path d="M0 2592 c0 -14 340 -179 412 -201 166 -50 186 -92 68 -145 -147 -66
-265 -46 -420 74 -42 32 -60 43 -60 36 0 -12 148 -116 193 -135 94 -40 203
-34 306 19 115 58 85 113 -88 166 -47 14 -159 64 -248 110 -90 46 -163 80
-163 76z"/>
<path d="M1017 2583 c-15 -18 -21 -36 -18 -60 1 -17 54 -43 87 -43 25 0 26 2
21 36 -6 37 -41 84 -62 84 -7 0 -19 -8 -28 -17z m67 -37 c28 -59 21 -67 -39
-42 -36 16 -46 41 -23 64 21 21 45 13 62 -22z"/>
<path d="M2595 2560 c-55 -10 -158 -22 -230 -26 -152 -8 -170 -17 -180 -93
-11 -77 -22 -101 -75 -148 -55 -49 -59 -61 -31 -87 14 -13 24 -15 38 -8 21 12
69 63 107 115 20 27 34 37 55 37 32 0 55 23 65 62 9 38 34 52 156 88 189 56
314 51 452 -15 26 -13 48 -19 48 -14 0 5 -6 9 -12 9 -10 0 -10 2 0 8 8 6 -15
21 -69 47 -102 48 -177 53 -324 25z m313 -32 c40 -17 71 -32 69 -34 -2 -2 -33
8 -68 23 -92 38 -216 43 -341 13 -184 -43 -238 -69 -238 -111 0 -34 -12 -49
-40 -49 -32 0 -51 -15 -106 -85 -21 -27 -45 -55 -54 -62 -20 -17 -47 -16 -53
1 -6 16 20 47 71 86 29 22 35 34 46 99 17 103 23 107 183 114 70 3 162 12 203
21 156 32 221 29 328 -16z"/>
<path d="M0 2543 c0 -12 254 -147 305 -163 53 -17 113 -50 119 -67 9 -21 -28
-50 -73 -58 -81 -14 -159 21 -315 140 -20 15 -36 23 -36 19 1 -15 152 -121
211 -149 102 -47 229 -23 229 44 0 21 -47 52 -124 82 -73 28 -196 90 -283 141
-18 11 -33 16 -33 11z"/>
<path d="M9 2481 c10 -6 10 -10 1 -13 -7 -2 32 -36 86 -76 107 -79 192 -114
219 -92 25 21 17 38 -22 50 -21 7 -93 41 -161 76 -67 35 -126 64 -130 64 -4 0
-1 -4 7 -9z m59 -35 c56 -35 193 -102 225 -110 15 -3 27 -11 27 -16 0 -19 -67
-10 -112 14 -40 21 -63 37 -164 113 -39 29 -23 29 24 -1z"/>
<path d="M985 2358 c-11 -6 -25 -18 -31 -27 -6 -8 -36 -26 -65 -40 -49 -24
-54 -29 -56 -61 -3 -66 -17 -87 -74 -105 -29 -10 -71 -34 -93 -55 -37 -34 -48
-38 -114 -44 -83 -7 -139 -27 -149 -52 -10 -27 40 -64 87 -64 44 0 57 -14 81
-84 12 -33 23 -43 76 -68 57 -27 64 -34 91 -91 16 -34 55 -90 85 -124 87 -98
96 -171 36 -291 -39 -79 -89 -134 -218 -241 -141 -117 -201 -193 -201 -257 0
-53 37 -111 87 -135 60 -29 137 -22 347 31 87 22 174 40 193 40 40 0 82 -20
138 -66 97 -79 180 -71 291 29 115 104 146 232 86 360 -16 36 -71 120 -122
188 -51 68 -104 148 -118 177 -49 107 -25 223 60 296 99 85 231 86 292 3 20
-27 21 -42 21 -260 0 -218 1 -235 23 -288 34 -84 87 -139 173 -179 193 -89
372 1 440 220 26 86 26 198 0 287 -46 153 -208 355 -406 505 -205 155 -582
338 -798 388 -100 23 -133 24 -162 8z m190 -30 c147 -36 453 -176 625 -285
294 -186 490 -409 545 -618 47 -182 -23 -380 -164 -463 -40 -23 -57 -27 -126
-27 -67 0 -90 5 -143 29 -156 72 -208 211 -183 486 13 152 8 196 -31 245 -67
85 -241 68 -329 -32 -52 -60 -72 -117 -67 -187 7 -79 36 -137 144 -278 117
-155 149 -222 149 -313 0 -80 -16 -121 -75 -188 -78 -89 -164 -126 -234 -102
-20 7 -60 31 -89 53 -95 72 -100 73 -314 19 -322 -81 -423 -60 -423 86 0 60
43 122 140 205 192 163 225 197 268 282 35 69 42 91 42 141 0 71 -14 101 -81
175 -27 30 -60 79 -73 107 -26 58 -68 99 -120 117 -27 8 -38 21 -54 58 -32 72
-43 83 -90 86 -43 3 -86 31 -76 48 10 16 50 27 135 38 74 9 85 13 124 49 23
21 65 46 94 56 44 14 55 23 68 52 8 19 13 47 11 62 -3 23 4 29 49 51 28 14 62
35 75 46 41 38 57 38 203 2z"/>
<path d="M1008 2252 c-9 -4 -48 -37 -85 -73 -39 -38 -98 -81 -140 -103 -88
-46 -120 -77 -129 -122 -13 -72 15 -117 149 -233 55 -47 109 -104 122 -125 55
-92 52 -248 -9 -370 -29 -59 -54 -89 -153 -182 -133 -124 -189 -199 -199 -260
-5 -34 -2 -46 15 -63 29 -29 53 -27 236 20 212 54 275 53 360 -6 32 -22 69
-48 84 -57 32 -22 111 -24 149 -4 36 19 96 83 117 125 42 84 -5 229 -129 401
-121 167 -156 254 -156 391 0 58 19 83 90 119 33 16 74 43 92 58 27 23 49 30
118 40 l84 12 36 -29 c19 -15 48 -54 65 -86 29 -57 29 -59 36 -279 7 -230 12
-261 57 -328 51 -78 174 -127 269 -108 101 21 166 94 199 220 53 207 -71 466
-319 666 -117 95 -292 208 -401 260 -163 77 -492 146 -558 116z m232 -28 c117
-22 287 -80 383 -132 135 -73 323 -208 418 -302 207 -203 289 -435 219 -620
-28 -76 -88 -141 -145 -160 -90 -30 -224 12 -282 88 -41 55 -53 115 -53 280
-1 249 -29 358 -109 421 -38 30 -40 30 -121 24 -72 -5 -88 -10 -129 -39 -25
-19 -72 -47 -103 -64 -76 -40 -88 -59 -88 -142 0 -136 29 -212 142 -368 132
-183 177 -307 143 -395 -33 -87 -133 -156 -207 -141 -15 3 -63 30 -107 60 -58
40 -92 56 -128 60 -53 8 -156 -9 -293 -48 -167 -47 -200 -44 -200 20 0 63 30
106 177 252 90 89 152 160 167 190 42 84 59 158 54 243 -6 104 -40 172 -116
236 -90 74 -162 146 -178 175 -17 33 -18 91 -2 121 15 30 31 42 109 82 38 19
94 61 129 95 33 34 76 68 93 76 35 15 98 12 227 -12z"/>
<path d="M1035 2178 c-11 -6 -51 -41 -90 -78 -38 -37 -85 -75 -103 -84 -39
-20 -92 -90 -92 -122 0 -30 41 -77 109 -124 78 -53 116 -95 145 -163 59 -133
56 -271 -11 -409 -28 -59 -57 -96 -152 -193 -130 -132 -151 -159 -151 -192 0
-34 28 -36 141 -7 130 32 265 42 311 23 18 -7 59 -32 92 -56 49 -36 66 -43
105 -43 108 0 169 95 136 208 -9 28 -60 118 -116 204 -159 242 -196 329 -186
444 12 151 171 296 343 313 125 13 217 -33 269 -134 l30 -59 1 -215 c0 -262
11 -312 79 -377 110 -106 265 -67 315 78 45 129 9 303 -94 454 -117 173 -432
389 -698 480 -158 54 -336 78 -383 52z m180 -14 c117 -20 270 -71 383 -128
127 -64 316 -194 399 -274 225 -217 290 -516 142 -658 -27 -26 -37 -29 -97
-29 -95 0 -138 24 -177 100 l-30 59 -5 241 -5 242 -30 59 c-92 180 -346 189
-525 19 -168 -161 -153 -310 64 -638 54 -82 106 -167 117 -190 38 -84 16 -177
-50 -212 -57 -29 -101 -18 -184 44 -71 54 -127 66 -237 50 -46 -6 -114 -20
-150 -30 -76 -22 -130 -25 -130 -6 0 26 43 80 153 189 124 122 164 184 194
301 33 129 -3 302 -83 395 -18 22 -57 56 -86 75 -137 91 -145 152 -30 230 26
18 76 60 112 94 95 90 107 93 255 67z"/>
<path d="M1089 2137 c-44 -16 -52 -22 -167 -121 -50 -43 -94 -86 -97 -97 -9
-27 5 -47 89 -122 46 -41 97 -101 131 -152 31 -47 60 -85 65 -85 5 0 14 19 20
43 24 93 43 140 74 180 42 55 104 101 163 121 26 10 69 27 95 40 39 20 49 21
70 10 19 -10 26 -10 41 3 16 15 19 15 40 -5 27 -25 57 -29 57 -7 0 44 -326
172 -505 199 -23 3 -55 0 -76 -7z m235 -42 c86 -25 296 -114 323 -137 26 -21
4 -20 -23 1 -30 24 -50 27 -56 9 -4 -10 -10 -10 -32 0 -24 11 -33 10 -64 -7
-21 -11 -59 -26 -86 -35 -138 -44 -228 -144 -258 -287 -7 -33 -15 -59 -18 -59
-4 0 -30 36 -58 79 -32 48 -83 107 -132 152 -103 93 -103 99 5 192 44 37 100
82 125 99 42 28 49 29 115 24 39 -2 110 -17 159 -31z"/>
<path d="M1095 2079 c-63 -38 -186 -146 -192 -168 -6 -25 2 -35 87 -100 17
-13 46 -47 65 -77 19 -30 39 -54 44 -54 5 0 17 22 27 50 40 110 127 187 263
230 36 12 73 24 81 27 27 8 -26 41 -113 69 -95 29 -231 41 -262 23z m245 -31
c36 -11 78 -27 94 -35 l28 -15 -81 -28 c-145 -50 -223 -119 -266 -233 l-18
-48 -29 50 c-16 27 -45 63 -64 78 -100 82 -97 78 -86 100 14 25 132 120 182
146 43 22 138 16 240 -15z"/>
<path d="M1143 2041 c-61 -15 -183 -102 -183 -130 0 -6 9 -19 21 -28 11 -10
38 -35 59 -55 22 -21 43 -38 48 -38 13 0 47 41 66 78 20 39 81 85 144 108 59
22 57 21 43 38 -18 22 -147 39 -198 27z m153 -22 l45 -12 -56 -22 c-81 -33
-102 -50 -141 -111 -43 -67 -58 -74 -85 -40 -11 15 -34 33 -50 41 -40 21 -37
47 10 84 84 67 173 86 277 60z"/>
<path d="M1151 2000 c-66 -24 -121 -65 -121 -90 0 -21 35 -50 62 -50 9 0 31
20 48 45 17 24 51 56 75 71 25 14 45 29 45 33 0 14 -57 10 -109 -9z m84 0 c-3
-5 -11 -10 -17 -10 -20 0 -69 -43 -94 -81 -28 -45 -33 -46 -65 -19 l-24 20 35
30 c41 36 181 87 165 60z"/>
<path d="M1834 1808 c4 -18 10 -143 14 -278 l7 -245 30 -60 c19 -37 43 -69 64
-82 68 -46 153 -19 195 62 18 33 21 58 21 150 0 106 -1 113 -36 185 -48 97
-117 182 -204 247 -83 63 -100 67 -91 21z m81 -29 c83 -60 155 -147 199 -239
40 -82 41 -88 41 -185 0 -110 -17 -162 -65 -197 -72 -52 -145 -23 -195 77 -30
59 -30 61 -28 210 2 141 -9 310 -24 364 -7 28 -5 27 72 -30z"/>
<path d="M1887 1613 c7 -273 9 -296 31 -345 37 -85 119 -113 172 -60 60 60 47
228 -26 360 -40 71 -140 182 -165 182 -13 0 -15 -19 -12 -137z m62 84 c99 -94
162 -233 163 -359 1 -83 -14 -122 -54 -139 -46 -19 -95 11 -128 76 -23 47 -24
58 -25 245 -1 108 -5 201 -9 208 -15 25 11 10 53 -31z"/>
<path d="M1942 1489 c3 -173 10 -201 61 -256 26 -29 48 -29 73 -2 15 17 19 36
18 98 0 90 -25 161 -87 253 -67 99 -69 95 -65 -93z m96 12 c31 -63 38 -87 41
-152 3 -83 -8 -119 -38 -119 -23 0 -46 26 -66 74 -12 28 -17 80 -20 185 l-3
146 24 -30 c14 -16 41 -64 62 -104z"/>
<path d="M1989 1443 c-13 -33 4 -125 26 -143 12 -10 17 -7 25 15 13 35 13 42
-5 103 -18 58 -30 65 -46 25z m39 -75 c3 -51 2 -61 -9 -51 -7 7 -15 41 -17 75
-3 51 -2 61 9 51 7 -7 15 -41 17 -75z"/>
<path d="M1091 1476 c-9 -10 -6 -27 10 -70 l22 -57 -22 -22 c-24 -26 -27 -48
-9 -77 17 -27 2 -51 -112 -184 -139 -162 -150 -176 -150 -188 0 -7 24 -8 73
-4 231 21 218 22 291 -19 98 -55 149 -68 192 -50 46 19 60 55 44 115 -15 59
-45 109 -122 206 -95 118 -128 175 -149 260 -25 99 -42 122 -68 90z m38 -28
c6 -18 15 -55 21 -82 14 -62 59 -137 151 -252 83 -104 119 -172 119 -231 0
-93 -91 -97 -233 -10 -56 34 -98 37 -248 16 -49 -6 -91 -10 -94 -7 -2 2 39 53
91 114 53 60 114 133 137 162 39 52 40 55 30 95 -10 36 -9 44 10 69 21 28 21
30 4 77 -9 27 -17 56 -17 65 0 28 18 17 29 -16z"/>
<path d="M1121 1206 c-16 -72 -60 -139 -134 -207 -80 -73 -74 -82 54 -73 l99
7 61 -38 c103 -63 183 -57 181 14 -1 46 -33 106 -102 190 -33 40 -75 93 -92
117 -17 24 -37 44 -43 44 -7 0 -17 -24 -24 -54z m139 -101 c35 -44 75 -100 87
-124 54 -105 4 -154 -98 -96 -117 66 -126 69 -212 56 -44 -7 -81 -10 -84 -7
-4 3 28 41 69 84 75 78 117 156 118 215 1 20 4 18 28 -13 15 -19 56 -71 92
-115z"/>
<path d="M1142 1119 c-9 -18 -36 -54 -60 -81 -23 -27 -40 -54 -36 -59 3 -6 24
-7 49 -3 44 6 104 -15 176 -62 55 -36 78 10 38 76 -30 48 -108 139 -131 151
-15 8 -21 4 -36 -22z m87 -46 c60 -68 99 -139 83 -155 -7 -7 -19 -4 -39 9 -60
43 -112 63 -163 63 l-51 0 39 48 c22 26 45 57 51 70 7 12 16 22 21 22 4 0 31
-26 59 -57z"/>
<path d="M1154 1072 c-6 -4 -16 -17 -23 -30 -10 -19 -9 -23 6 -28 10 -4 42
-17 72 -30 29 -13 57 -24 62 -24 20 0 7 30 -32 74 -39 44 -61 54 -85 38z m76
-48 c23 -25 40 -48 37 -50 -2 -2 -24 7 -48 21 -24 13 -52 25 -61 25 -10 0 -18
3 -18 7 0 9 32 43 40 43 4 0 26 -21 50 -46z"/>
<path d="M2604 2186 c-96 -45 -271 -251 -275 -323 -1 -13 -2 -29 -2 -35 -3
-44 19 -121 69 -234 87 -199 84 -234 -33 -486 -25 -53 -43 -104 -40 -112 8
-21 39 -20 142 4 117 27 208 26 265 -2 40 -21 50 -33 90 -115 59 -120 81 -143
137 -143 25 0 43 5 43 11 0 7 -12 9 -34 5 -48 -9 -86 26 -122 111 -37 90 -58
120 -103 142 -59 30 -117 34 -222 16 -165 -30 -180 -32 -185 -24 -2 5 15 48
39 96 62 123 100 238 100 298 0 49 -5 63 -100 288 -30 72 -38 140 -24 195 28
102 207 287 303 313 55 14 142 -6 257 -61 46 -22 86 -38 88 -36 8 8 -147 82
-206 100 -75 22 -127 20 -187 -8z"/>
<path d="M2668 2139 c-47 -12 -93 -47 -157 -114 -131 -140 -144 -206 -73 -361
102 -223 106 -257 49 -449 -21 -70 -32 -124 -27 -129 5 -5 57 -8 115 -7 185 4
248 -31 314 -172 34 -72 69 -104 98 -91 15 6 14 8 -7 12 -37 6 -49 20 -85 97
-63 136 -122 168 -304 167 -123 -1 -123 -1 -117 21 37 127 66 256 66 288 0 48
-28 135 -81 251 -74 161 -64 229 55 356 73 78 138 122 181 122 42 0 126 -30
225 -79 44 -22 80 -37 80 -33 0 8 -144 83 -195 101 -55 20 -110 28 -137 20z"/>
<path d="M0 2093 c0 -4 32 -27 70 -51 156 -97 346 -256 412 -346 52 -72 39
-105 -111 -280 -140 -163 -186 -251 -200 -381 -14 -133 -58 -218 -134 -257
-23 -11 -36 -23 -30 -25 18 -6 100 56 121 91 34 59 52 116 62 202 15 132 56
209 201 374 140 160 155 195 116 263 -49 84 -237 247 -412 359 -96 61 -95 60
-95 51z"/>
<path d="M2622 2062 c-95 -71 -182 -189 -182 -246 0 -29 31 -114 86 -236 36
-79 39 -91 39 -180 0 -52 -4 -122 -8 -155 -5 -35 -4 -66 1 -74 6 -9 44 -17
108 -22 159 -14 208 -42 251 -141 35 -82 58 -122 72 -126 12 -4 12 -2 2 9 -7
8 -34 57 -59 109 -63 127 -93 147 -245 159 -58 5 -110 12 -116 16 -15 9 -14
40 6 126 22 99 9 174 -57 325 -68 156 -76 192 -55 235 31 60 94 138 148 180
48 39 55 41 104 37 37 -3 84 -20 165 -61 124 -62 156 -69 55 -13 -82 46 -174
84 -224 92 -34 5 -45 1 -91 -34z"/>
<path d="M2665 2031 c-43 -20 -80 -56 -139 -134 -49 -65 -47 -93 14 -232 71
-163 84 -214 77 -305 -3 -41 -8 -82 -11 -90 -13 -32 18 -53 89 -61 37 -5 90
-19 119 -32 57 -27 127 -92 146 -136 11 -28 40 -50 40 -32 0 5 -7 11 -15 15
-8 3 -15 12 -15 21 0 22 -77 102 -127 131 -23 14 -82 33 -130 43 l-88 17 2 40
c10 189 7 203 -78 401 -27 61 -49 123 -49 136 0 33 52 107 117 167 47 43 60
50 95 50 40 0 157 -50 246 -105 23 -14 42 -22 42 -17 0 20 -250 143 -288 142
-4 0 -25 -9 -47 -19z"/>
<path d="M0 2013 c0 -4 25 -23 55 -41 134 -81 360 -276 371 -319 10 -37 -22
-94 -110 -198 -151 -177 -189 -252 -210 -412 -17 -124 -30 -159 -78 -197 -18
-14 -27 -26 -19 -26 7 0 29 16 47 35 37 40 64 115 64 180 0 116 58 234 192
393 100 120 128 166 128 214 0 28 -11 44 -77 107 -117 111 -364 291 -363 264z"/>
<path d="M2630 1944 c-68 -65 -90 -99 -90 -140 0 -15 21 -72 46 -127 64 -141
88 -240 75 -312 -14 -76 -3 -101 51 -115 117 -31 149 -43 194 -75 27 -19 54
-35 61 -35 14 0 33 31 33 52 -1 7 -8 0 -16 -15 -8 -15 -19 -25 -23 -23 -4 3
-31 21 -58 39 -31 21 -80 41 -125 52 -115 28 -111 24 -103 115 9 97 -7 163
-75 317 -28 61 -50 119 -50 128 0 33 45 96 99 141 48 40 57 44 90 38 45 -8
141 -56 204 -101 27 -19 51 -32 53 -30 8 8 -98 79 -163 109 -35 17 -81 32
-102 35 -38 5 -43 2 -101 -53z"/>
<path d="M0 1956 c0 -2 28 -22 63 -44 85 -56 214 -160 265 -216 66 -71 62 -83
-75 -245 -127 -149 -176 -251 -193 -400 -12 -104 -16 -118 -43 -148 -11 -13
-16 -23 -10 -23 32 0 56 66 68 185 12 130 65 233 210 406 48 57 91 114 96 127
11 28 -4 68 -39 105 -83 88 -342 280 -342 253z"/>
<path d="M2715 1921 c-66 -30 -105 -86 -105 -149 0 -14 21 -78 47 -142 42
-103 47 -125 52 -218 7 -115 12 -125 79 -136 20 -4 58 -16 84 -28 27 -12 56
-18 70 -15 23 6 58 54 58 79 -1 7 -10 -3 -20 -23 -25 -48 -43 -53 -98 -29 -25
11 -62 23 -83 26 -67 11 -73 21 -75 120 -2 92 -15 141 -69 259 -50 108 -36
177 46 233 65 45 131 24 267 -85 17 -14 32 -22 32 -17 0 14 -145 117 -182 131
-45 16 -57 15 -103 -6z"/>
<path d="M5 1901 c4 -7 28 -26 53 -42 76 -48 220 -172 235 -203 22 -43 8 -74
-80 -180 -130 -155 -162 -224 -201 -421 -9 -41 -8 -47 2 -33 7 10 16 45 19 77
12 115 74 234 202 386 82 99 98 139 71 180 -20 31 -153 145 -226 194 -77 52
-85 57 -75 42z"/>
<path d="M2734 1880 c-12 -4 -31 -21 -43 -36 -32 -41 -28 -102 18 -230 22 -60
42 -132 46 -159 17 -125 40 -154 122 -155 58 0 72 10 104 72 30 58 17 57 -14
-1 -15 -27 -34 -52 -43 -55 -34 -13 -94 -6 -113 13 -21 21 -41 80 -41 120 0
13 -20 84 -45 158 -25 73 -45 149 -45 168 0 49 41 95 87 95 42 0 61 -9 143
-73 98 -76 94 -73 89 -60 -6 18 -145 122 -184 138 -39 17 -51 17 -81 5z"/>
<path d="M427 1863 c-13 -12 -7 -50 11 -65 9 -9 37 -26 62 -38 66 -33 80 -48
74 -80 -4 -17 2 -42 14 -66 31 -61 18 -82 -188 -299 -109 -115 -134 -162 -155
-294 -26 -156 -8 -289 47 -348 43 -46 64 -27 94 82 44 157 83 209 226 307 109
74 170 141 198 216 39 102 11 220 -65 278 -29 22 -35 33 -35 64 0 37 -23 70
-49 70 -8 0 -48 33 -90 73 -99 96 -128 116 -144 100z m118 -94 c46 -45 99 -89
117 -98 28 -13 34 -23 39 -60 4 -34 14 -50 42 -75 46 -39 69 -94 70 -166 2
-107 -61 -196 -207 -294 -153 -103 -189 -156 -245 -363 -9 -32 -17 -43 -32
-43 -23 0 -54 47 -70 105 -27 94 -3 307 43 399 11 21 59 80 107 130 123 128
199 221 207 253 5 19 1 38 -15 65 -13 23 -20 47 -16 58 9 30 -8 52 -72 89 -57
34 -83 57 -83 73 0 24 40 -1 115 -73z"/>
<path d="M626 1480 c-20 -22 -36 -45 -36 -50 0 -6 -53 -65 -119 -133 -65 -67
-124 -133 -131 -146 -8 -16 -10 -49 -5 -111 7 -83 6 -91 -19 -132 -31 -54 -33
-78 -6 -109 l20 -24 25 28 c13 15 32 53 40 85 28 103 52 139 134 197 151 107
178 133 206 190 24 47 27 64 23 124 -3 57 -8 75 -28 96 -34 36 -62 32 -104
-15z m81 22 c20 -12 43 -78 43 -119 -2 -95 -46 -157 -175 -248 -138 -96 -165
-129 -185 -223 -12 -52 -43 -112 -60 -112 -6 0 -15 11 -21 24 -10 21 -7 33 21
81 l33 57 -13 70 c-6 38 -9 81 -5 95 3 14 57 78 119 142 61 64 127 139 146
168 39 60 71 81 97 65z"/>
<path d="M653 1438 c-11 -13 -30 -39 -44 -58 -13 -19 -64 -78 -114 -130 -104
-110 -136 -160 -116 -184 16 -19 26 -14 140 68 127 92 152 116 177 171 28 58
30 102 8 133 -19 28 -26 28 -51 0z m52 -18 c16 -50 -26 -142 -87 -194 -65 -54
-179 -137 -205 -149 -64 -29 -28 35 89 161 51 54 109 122 128 150 37 54 64 66
75 32z"/>
<path d="M613 1318 c-36 -40 -55 -76 -44 -83 14 -8 45 10 70 41 40 51 17 88
-26 42z m29 -15 c-13 -23 -51 -58 -57 -52 -2 3 9 22 26 43 32 38 49 43 31 9z"/>
<path d="M0 1851 c0 -5 40 -36 89 -70 105 -72 151 -120 151 -160 0 -19 -17
-51 -47 -91 -27 -35 -65 -86 -87 -114 -41 -54 -106 -180 -106 -205 0 -8 18 22
40 68 22 45 66 116 98 157 31 41 69 91 84 111 43 56 39 100 -14 155 -46 46
-208 163 -208 149z"/>
<path d="M2737 1812 c-25 -28 -21 -92 12 -176 17 -40 37 -102 45 -137 30 -122
67 -160 120 -125 27 17 91 104 83 112 -3 3 -18 -14 -33 -37 -41 -59 -76 -84
-101 -70 -23 12 -35 40 -57 128 -8 34 -27 90 -41 125 -37 91 -43 148 -16 172
29 26 54 17 154 -60 48 -37 90 -65 92 -62 5 5 -104 91 -163 130 -35 23 -75 23
-95 0z"/>
<path d="M0 1793 c1 -4 32 -30 71 -56 44 -30 76 -60 86 -82 15 -31 15 -37 -2
-80 -9 -26 -39 -75 -66 -110 -55 -72 -89 -125 -89 -140 0 -5 17 17 38 50 21
33 46 66 56 74 27 23 86 135 86 165 0 46 -31 86 -107 137 -40 27 -73 46 -73
42z"/>
<path d="M2771 1752 c-8 -14 -2 -41 24 -108 19 -49 39 -108 45 -132 6 -24 20
-52 31 -63 18 -18 23 -19 42 -6 25 16 87 124 87 151 0 33 -168 176 -206 176
-7 0 -18 -8 -23 -18z m96 -38 c61 -47 102 -84 114 -106 17 -32 -63 -167 -93
-156 -12 5 -85 197 -105 276 -8 34 27 28 84 -14z"/>
<path d="M24 1718 c88 -69 99 -82 91 -117 -4 -17 -31 -64 -61 -104 -68 -91
-71 -111 -3 -26 109 137 106 180 -16 248 l-40 22 29 -23z"/>
<path d="M0 1686 c0 -5 11 -19 25 -32 32 -30 32 -71 0 -119 -15 -20 -24 -40
-21 -42 8 -8 66 89 66 109 0 18 -69 101 -70 84z"/>
<path d="M1473 1640 c-41 -21 -83 -71 -102 -123 -27 -71 0 -146 95 -267 100
-127 114 -148 146 -217 56 -118 47 -280 -22 -391 -24 -39 -75 -72 -111 -72
-42 0 -90 -40 -108 -90 -12 -32 -23 -46 -38 -48 -36 -5 -47 -27 -33 -62 12
-28 10 -37 -15 -87 -22 -41 -26 -59 -18 -72 21 -33 48 -23 119 43 81 74 99 81
325 121 298 52 457 20 622 -125 74 -65 88 -69 158 -45 143 49 293 239 320 405
21 130 -28 288 -105 339 -54 36 -111 32 -276 -17 -74 -22 -159 -45 -188 -51
-188 -39 -399 37 -493 178 -53 80 -70 159 -69 306 1 72 1 145 0 164 -3 106
-107 162 -207 111z m149 -17 c40 -36 43 -53 44 -233 1 -200 10 -241 74 -337
45 -68 131 -133 218 -166 48 -18 78 -22 182 -22 130 1 132 1 338 66 189 59
264 26 307 -136 51 -196 -36 -408 -217 -532 -52 -36 -78 -47 -118 -51 -49 -4
-53 -3 -93 35 -117 112 -250 165 -417 165 -116 1 -416 -49 -473 -78 -18 -9
-58 -41 -89 -70 -86 -82 -131 -66 -72 27 22 36 24 45 14 70 -15 35 -7 59 18
59 24 0 36 14 52 63 14 45 40 64 104 76 26 5 59 19 73 32 37 34 80 130 94 209
23 133 -15 235 -163 432 -53 69 -101 143 -108 163 -34 103 11 202 111 245 33
14 97 5 121 -17z"/>
<path d="M1502 1603 c-47 -23 -84 -75 -89 -126 -7 -55 21 -112 112 -227 160
-204 202 -333 160 -495 -34 -129 -124 -251 -241 -326 -86 -56 -85 -74 4 -66
37 3 106 17 154 31 246 72 492 74 634 5 24 -11 78 -47 121 -80 42 -32 87 -59
99 -59 92 0 231 133 283 270 47 124 25 305 -45 371 -38 36 -102 31 -264 -19
-253 -78 -401 -76 -558 8 -114 61 -206 184 -232 312 -6 31 -10 122 -9 205 3
159 -2 181 -48 202 -31 14 -42 14 -81 -6z m98 -23 c18 -18 19 -32 18 -182 -2
-132 1 -175 16 -223 44 -146 128 -246 260 -310 149 -72 305 -70 539 4 163 52
224 55 260 11 60 -71 77 -223 38 -334 -45 -128 -140 -232 -243 -265 -43 -14
-52 -10 -123 48 -69 57 -169 107 -243 121 -41 9 -114 11 -215 7 -134 -4 -166
-9 -272 -40 -109 -31 -245 -56 -245 -44 0 2 30 24 66 47 81 53 152 132 197
219 45 85 60 157 56 257 -4 68 -10 91 -45 164 -23 47 -83 139 -133 205 -50 66
-96 134 -102 153 -16 50 -3 97 40 142 31 32 45 40 74 40 24 0 44 -7 57 -20z"/>
<path d="M1506 1551 c-57 -38 -65 -83 -29 -156 34 -68 82 -95 101 -57 13 24
14 189 2 212 -13 25 -37 25 -74 1z m67 -28 c7 -38 -4 -183 -15 -189 -25 -16
-88 82 -88 136 0 64 92 112 103 53z"/>
<path d="M1750 822 c0 -106 -43 -209 -127 -302 -65 -73 -56 -82 59 -53 123 32
321 41 433 20 100 -18 210 -71 287 -138 31 -27 65 -49 76 -49 26 0 92 49 134
101 51 62 98 180 105 259 9 112 -34 212 -94 218 -17 2 -100 -17 -185 -41 -187
-55 -206 -58 -321 -58 -104 1 -169 17 -270 67 -94 47 -97 46 -97 -24z m88 14
c109 -55 173 -70 292 -70 110 1 140 6 353 69 76 22 137 35 151 31 30 -7 62
-71 71 -143 13 -103 -54 -272 -142 -354 -73 -68 -81 -69 -155 -9 -68 56 -142
97 -228 126 -79 27 -384 27 -480 0 -124 -35 -121 -37 -61 35 79 93 115 176
119 272 2 42 6 77 8 77 3 0 35 -15 72 -34z"/>
<path d="M2525 810 c-266 -86 -447 -96 -620 -33 -106 38 -106 38 -121 -33 -7
-34 -26 -94 -42 -133 -21 -51 -27 -73 -19 -78 7 -5 93 -6 192 -5 156 3 191 1
258 -17 89 -23 177 -67 236 -117 59 -51 92 -47 157 19 74 77 98 143 98 273 1
87 -2 105 -18 123 -23 26 -43 26 -121 1z m117 -31 c10 -19 18 -54 18 -79 0
-57 -24 -160 -49 -208 -25 -48 -104 -122 -132 -122 -11 0 -40 16 -62 36 -52
44 -163 99 -241 119 -83 21 -215 28 -331 17 -55 -5 -104 -5 -109 -1 -6 5 4 36
22 76 17 37 34 88 37 113 10 72 7 71 87 40 169 -65 329 -62 585 10 76 21 143
37 148 36 6 -1 18 -18 27 -37z"/>
<path d="M2510 736 c-25 -13 -68 -27 -95 -31 -28 -4 -76 -14 -108 -22 -54 -15
-62 -15 -118 2 -50 15 -71 17 -120 9 -46 -8 -68 -7 -97 4 -90 34 -134 25 -158
-34 -11 -25 -12 -40 -4 -54 14 -25 19 -25 55 4 28 23 32 23 64 10 22 -9 50
-12 75 -9 32 5 53 1 96 -19 66 -31 99 -33 133 -6 47 37 81 19 129 -72 53 -99
117 -121 179 -62 37 35 79 133 86 199 5 48 3 56 -20 79 -32 32 -41 32 -97 2z
m98 -28 c15 -33 1 -110 -35 -183 -31 -61 -58 -84 -101 -85 -40 0 -70 28 -106
98 -42 82 -84 100 -149 62 -36 -21 -44 -21 -113 12 -29 13 -60 18 -103 16 -37
-1 -65 2 -73 10 -17 17 -36 15 -65 -8 -34 -26 -43 -25 -43 5 0 29 40 75 65 75
9 0 39 -10 67 -22 46 -20 55 -20 114 -9 60 12 69 12 124 -9 56 -21 61 -21 107
-6 26 8 77 20 111 25 35 6 78 19 95 31 44 28 88 23 105 -12z"/>
<path d="M2425 641 c-94 -25 -95 -28 -25 -73 34 -21 70 -38 79 -36 21 4 53 98
39 116 -12 14 -15 14 -93 -7z m81 -26 c-10 -39 -25 -75 -31 -75 -4 0 -26 14
-50 30 -24 17 -49 30 -56 30 -45 0 66 36 120 39 20 1 22 -2 17 -24z"/>
<path d="M5 690 c-6 -9 0 -10 23 -5 44 9 108 -11 188 -60 39 -25 111 -64 160
-87 86 -41 92 -43 179 -42 67 1 135 12 266 43 231 54 313 53 385 -4 22 -17 28
-31 28 -60 0 -50 -38 -83 -183 -159 -118 -61 -166 -104 -176 -160 -8 -38 11
-142 27 -152 7 -4 7 4 2 27 -16 60 -11 151 9 181 11 16 66 51 139 89 149 77
198 120 198 173 0 64 -65 110 -172 122 -42 5 -89 -3 -233 -37 -149 -35 -198
-42 -285 -43 -121 -1 -144 7 -329 116 -88 52 -113 63 -161 66 -38 3 -60 0 -65
-8z"/>
<path d="M2954 680 c-44 -17 -89 -79 -147 -198 -104 -215 -177 -273 -427 -336
-150 -38 -229 -69 -278 -111 -48 -41 -32 -42 21 -2 49 38 106 58 290 107 159
41 200 62 278 140 56 55 76 85 123 184 69 144 95 179 147 200 39 16 50 27 27
25 -7 0 -22 -4 -34 -9z"/>
<path d="M35 632 c-41 -8 -32 -17 18 -17 46 0 64 -7 155 -62 57 -34 137 -76
179 -93 118 -49 215 -44 482 25 119 31 183 33 212 4 20 -20 20 -21 2 -52 -19
-33 -29 -40 -143 -106 -39 -23 -77 -55 -95 -81 -28 -39 -30 -47 -30 -135 0
-67 4 -98 14 -107 12 -11 13 -9 7 12 -27 107 -11 203 42 253 15 14 63 46 107
70 80 44 125 90 125 129 0 10 -15 28 -32 39 -38 23 -111 21 -188 -6 -70 -25
-282 -65 -342 -65 -94 0 -199 41 -356 137 -73 46 -121 62 -157 55z"/>
<path d="M2956 599 c-15 -12 -49 -68 -78 -128 -67 -140 -127 -223 -199 -276
-71 -52 -128 -75 -296 -117 -88 -22 -133 -38 -152 -55 l-26 -24 42 20 c22 11
103 36 179 56 167 43 240 80 322 164 51 52 74 88 127 196 45 93 74 141 97 159
18 14 28 26 22 26 -6 0 -23 -9 -38 -21z"/>
<path d="M14 524 c-19 -15 -19 -16 1 -8 64 23 90 17 203 -46 157 -88 232 -112
369 -118 111 -5 112 -4 144 23 28 23 39 26 73 21 34 -6 46 -2 81 23 23 16 54
33 68 36 23 6 27 4 27 -13 0 -31 -46 -62 -94 -62 -22 0 -46 -4 -51 -8 -6 -4
-28 -36 -50 -72 -40 -64 -40 -66 -40 -165 0 -63 5 -107 13 -120 11 -17 11 -15
5 20 -4 22 -7 75 -7 117 0 69 4 82 32 128 18 28 32 55 32 60 0 16 37 30 80 30
33 0 48 6 71 29 32 33 37 56 13 65 -30 12 -51 6 -100 -29 -34 -24 -55 -33 -69
-28 -33 11 -53 6 -88 -21 -39 -30 -85 -33 -214 -15 -91 12 -184 49 -303 119
-93 55 -157 66 -196 34z"/>
<path d="M2972 492 c-12 -15 -43 -69 -69 -121 -49 -100 -133 -196 -225 -259
-47 -31 -62 -62 -37 -78 6 -3 50 -6 97 -5 77 1 125 -4 212 -24 17 -4 14 -1
-10 11 -24 12 -74 19 -164 23 -83 4 -131 10 -133 17 -4 12 10 24 97 87 63 46
135 138 177 227 19 41 46 90 60 108 30 41 27 51 -5 14z"/>
<path d="M33 480 c-18 -11 -33 -25 -33 -32 0 -6 10 -2 23 9 36 34 59 35 107 8
208 -116 284 -143 448 -154 133 -10 138 -14 124 -112 -8 -62 -2 -182 10 -194
2 -2 3 61 3 140 0 99 -4 148 -12 156 -7 7 -56 16 -110 20 -54 4 -129 15 -168
24 -69 16 -211 81 -282 130 -45 30 -68 31 -110 5z"/>
<path d="M50 433 c-12 -9 -28 -31 -36 -49 -19 -45 -17 -56 3 -19 41 78 60 81
154 25 113 -69 223 -108 338 -121 134 -16 146 -25 143 -110 -3 -80 7 -159 20
-159 5 0 6 9 2 23 -5 12 -7 57 -6 100 3 122 -27 157 -137 157 -98 0 -254 55
-372 131 -58 37 -81 42 -109 22z"/>
<path d="M2947 357 c-25 -50 -71 -125 -102 -164 -30 -40 -55 -79 -55 -87 0
-15 29 -28 115 -49 33 -7 68 -17 78 -22 9 -4 17 -3 17 3 0 9 -82 35 -152 46
-20 4 -38 12 -41 19 -3 7 20 44 50 83 50 64 151 249 141 259 -2 3 -25 -37 -51
-88z"/>
<path d="M53 358 c-12 -13 -29 -43 -38 -67 -18 -52 -14 -67 5 -19 16 41 58 98
71 98 6 0 60 -25 122 -55 115 -56 238 -94 311 -96 78 -1 81 -5 81 -107 0 -65
4 -95 14 -104 12 -11 13 -10 7 5 -3 10 -6 58 -6 107 0 86 0 88 -27 98 -16 6
-57 13 -93 17 -84 8 -219 53 -298 100 -83 48 -120 54 -149 23z"/>
<path d="M1689 330 c-164 -28 -296 -87 -368 -165 -42 -45 -99 -151 -87 -162 3
-3 16 20 30 50 45 102 129 175 252 217 120 42 196 54 324 54 132 0 218 -14
286 -46 83 -38 75 -88 -33 -199 -36 -38 -64 -71 -61 -74 3 -3 40 31 81 76 135
144 114 201 -92 244 -76 16 -252 18 -332 5z"/>
<path d="M2967 292 c-14 -27 -40 -65 -57 -87 -31 -38 -39 -78 -19 -91 6 -4 25
-10 43 -14 17 -4 40 -11 50 -16 14 -5 17 -4 12 4 -4 6 -28 18 -54 25 -26 8
-48 21 -50 29 -2 8 13 36 32 61 38 49 80 126 73 133 -2 2 -16 -18 -30 -44z"/>
<path d="M82 317 c-22 -26 -60 -120 -55 -134 3 -7 24 -23 47 -35 22 -11 71
-40 108 -64 82 -53 148 -87 155 -81 3 3 -6 11 -19 17 -84 43 -278 166 -278
177 0 17 31 84 48 105 13 15 21 13 99 -27 103 -53 186 -82 272 -93 79 -11 101
-33 102 -101 0 -25 4 -55 9 -66 5 -12 6 7 3 50 -6 78 -22 112 -56 119 -12 3
-60 12 -107 21 -63 11 -113 30 -193 70 -59 30 -112 55 -116 55 -5 0 -13 -6
-19 -13z"/>
<path d="M1670 281 c-111 -25 -210 -63 -265 -102 -45 -32 -108 -114 -120 -156
-11 -40 3 -25 36 38 18 33 46 72 63 86 109 92 389 159 557 134 181 -28 203
-89 79 -224 -29 -31 -48 -57 -42 -57 12 0 103 104 121 137 17 33 14 88 -7 106
-40 36 -95 50 -217 53 -91 3 -140 -1 -205 -15z"/>
<path d="M102 248 c-19 -19 -14 -46 11 -63 96 -68 304 -185 327 -185 8 0 -21
20 -65 43 -103 54 -251 145 -266 164 -10 11 -9 17 3 29 14 14 24 12 99 -25 81
-40 217 -81 266 -81 28 0 43 -32 43 -93 0 -25 4 -37 8 -29 11 16 -1 109 -16
124 -6 6 -38 15 -71 19 -72 10 -188 49 -247 84 -47 27 -74 31 -92 13z"/>
<path d="M1745 245 c-99 -15 -198 -42 -248 -67 -53 -26 -125 -94 -148 -140
-27 -53 -15 -47 21 10 54 87 121 126 291 167 126 31 283 36 342 12 31 -14 37
-21 37 -47 0 -24 -14 -46 -65 -100 -84 -89 -84 -103 -1 -20 82 81 96 111 69
148 -37 50 -138 63 -298 37z"/>
<path d="M2981 222 c-16 -29 -14 -67 4 -82 18 -15 19 -7 3 19 -9 15 -9 26 0
47 15 31 9 45 -7 16z"/>
<path d="M1103 209 c-77 -38 -142 -134 -127 -188 6 -23 8 -21 15 21 4 26 17
61 29 79 32 44 98 89 131 89 43 0 53 -28 46 -129 -4 -64 -3 -80 5 -61 6 14 11
58 12 98 1 66 -1 76 -23 93 -29 24 -36 24 -88 -2z"/>
<path d="M1745 200 c-152 -23 -278 -79 -331 -149 -19 -24 -32 -47 -28 -50 3
-3 10 2 15 11 54 96 183 154 399 180 106 12 173 3 178 -24 2 -10 -22 -43 -55
-78 -32 -34 -62 -69 -66 -78 -10 -20 119 115 133 140 8 13 6 22 -10 38 -17 17
-32 20 -102 19 -46 -1 -105 -5 -133 -9z"/>
<path d="M1092 147 c-36 -39 -46 -80 -27 -117 20 -39 29 -35 13 6 -13 36 -5
77 22 104 39 39 63 10 37 -44 -10 -23 -12 -37 -5 -50 5 -9 7 -24 4 -32 -4 -9
-2 -12 5 -8 6 3 9 19 5 35 -3 16 1 44 10 64 12 28 12 40 3 51 -17 21 -43 17
-67 -9z"/>
<path d="M1673 135 c-56 -13 -112 -29 -125 -36 -41 -21 -87 -59 -99 -82 -8
-15 0 -11 27 14 52 49 86 65 186 88 114 27 204 36 212 22 4 -6 -12 -38 -34
-72 -23 -33 -40 -63 -37 -65 8 -8 88 120 85 136 -5 24 -99 22 -215 -5z"/>
<path d="M0 134 c0 -3 24 -16 53 -29 28 -14 81 -43 116 -65 36 -22 69 -40 74
-40 14 0 14 0 -88 62 -84 51 -155 84 -155 72z"/>
<path d="M347 114 c-15 -15 -5 -25 54 -54 48 -25 64 -29 75 -19 19 16 18 46
-3 57 -25 13 -117 25 -126 16z m127 -35 c6 -6 6 -13 -1 -20 -9 -9 -24 -7 -60
9 -26 11 -49 25 -51 30 -4 12 99 -5 112 -19z"/>
<path d="M1645 81 c-85 -26 -107 -36 -129 -60 -16 -17 -10 -16 35 8 64 35 196
68 210 54 6 -6 5 -21 -2 -42 -6 -17 -9 -34 -6 -37 8 -9 29 65 23 81 -7 20 -56
18 -131 -4z"/>
<path d="M5 82 c6 -5 41 -26 79 -47 73 -41 84 -32 13 9 -47 27 -108 52 -92 38z"/>
<path d="M0 35 c0 -6 56 -35 67 -35 4 0 -5 9 -22 20 -29 19 -45 25 -45 15z"/>
<path d="M1605 21 c-48 -23 -37 -26 27 -6 42 12 49 12 63 -1 13 -13 15 -13 15
-1 0 31 -48 35 -105 8z"/>
</g>
</svg>
